<svg width="37" height="37" viewBox="0 0 37 37" fill="none" xmlns="http://www.w3.org/2000/svg">
<rect x="0.5" y="0.5" width="35.4999" height="35.4999" rx="11.5" stroke="#43483F" stroke-opacity="0.2"/>
<path d="M18.5961 21.3461C19.2256 21.3461 19.7579 21.1285 20.1932 20.6932C20.6284 20.258 20.8461 19.7256 20.8461 19.0961V13.4807H23.7114V11.7115H19.9615V17.3654C19.7704 17.1923 19.5611 17.0625 19.3336 16.976C19.106 16.8894 18.8602 16.8461 18.5961 16.8461C17.9666 16.8461 17.4342 17.0638 16.999 17.499C16.5637 17.9343 16.3461 18.4666 16.3461 19.0961C16.3461 19.7256 16.5637 20.258 16.999 20.6932C17.4342 21.1285 17.9666 21.3461 18.5961 21.3461ZM14.3076 23.9999C13.8025 23.9999 13.375 23.8249 13.025 23.4749C12.675 23.1249 12.5 22.6974 12.5 22.1922V10.8077C12.5 10.3026 12.675 9.87499 13.025 9.525C13.375 9.175 13.8025 9 14.3076 9H25.6922C26.1973 9 26.6249 9.175 26.9749 9.525C27.3249 9.87499 27.4999 10.3026 27.4999 10.8077V22.1922C27.4999 22.6974 27.3249 23.1249 26.9749 23.4749C26.6249 23.8249 26.1973 23.9999 25.6922 23.9999H14.3076ZM14.3076 22.5H25.6922C25.7691 22.5 25.8397 22.4679 25.9038 22.4038C25.9679 22.3397 25.9999 22.2692 25.9999 22.1922V10.8077C25.9999 10.7307 25.9679 10.6602 25.9038 10.5961C25.8397 10.532 25.7691 10.5 25.6922 10.5H14.3076C14.2307 10.5 14.1602 10.532 14.0961 10.5961C14.032 10.6602 13.9999 10.7307 13.9999 10.8077V22.1922C13.9999 22.2692 14.032 22.3397 14.0961 22.4038C14.1602 22.4679 14.2307 22.5 14.3076 22.5ZM10.8077 27.4999C10.3026 27.4999 9.87499 27.3249 9.525 26.9749C9.175 26.6249 9 26.1973 9 25.6922V12.8077H10.5V25.6922C10.5 25.7691 10.532 25.8397 10.5961 25.9038C10.6602 25.9679 10.7307 25.9999 10.8077 25.9999H23.6922V27.4999H10.8077ZM13.9999 10.5C13.9999 10.5 13.9999 10.5288 13.9999 10.5865C13.9999 10.6442 13.9999 10.7179 13.9999 10.8077V22.1922C13.9999 22.282 13.9999 22.3557 13.9999 22.4134C13.9999 22.4711 13.9999 22.5 13.9999 22.5C13.9999 22.5 13.9999 22.4711 13.9999 22.4134C13.9999 22.3557 13.9999 22.282 13.9999 22.1922V10.8077C13.9999 10.7179 13.9999 10.6442 13.9999 10.5865C13.9999 10.5288 13.9999 10.5 13.9999 10.5Z" fill="#E3E3D9"/>
</svg>
