<svg width="149" height="32" viewBox="0 0 149 32" fill="none" xmlns="http://www.w3.org/2000/svg">
<path d="M0.890625 19.6523H1.65234L1.66406 21.8906C1.78906 22.0781 1.96289 22.2559 2.18555 22.4238C2.4082 22.5918 2.66406 22.7402 2.95312 22.8691C3.24219 22.998 3.55664 23.0996 3.89648 23.1738C4.23633 23.248 4.58984 23.2852 4.95703 23.2852C5.62109 23.2852 6.20117 23.2051 6.69727 23.0449C7.19336 22.8848 7.60938 22.6543 7.94531 22.3535C8.28125 22.0527 8.5332 21.6914 8.70117 21.2695C8.86914 20.8477 8.95312 20.3711 8.95312 19.8398C8.95312 19.418 8.85938 19.0508 8.67188 18.7383C8.48438 18.4258 8.23438 18.1445 7.92188 17.8945C7.60938 17.6445 7.25586 17.4141 6.86133 17.2031C6.4668 16.9922 6.0625 16.7793 5.64844 16.5645C5.23438 16.3496 4.83008 16.1191 4.43555 15.873C4.04102 15.627 3.6875 15.3418 3.375 15.0176C3.0625 14.6934 2.8125 14.3203 2.625 13.8984C2.4375 13.4766 2.34375 12.9805 2.34375 12.4102C2.34375 11.6914 2.4707 11.0625 2.72461 10.5234C2.97852 9.98438 3.3418 9.53711 3.81445 9.18164C4.28711 8.82617 4.86133 8.55859 5.53711 8.37891C6.21289 8.19922 6.97266 8.10938 7.81641 8.10938C8.58984 8.10938 9.2832 8.15039 9.89648 8.23242C10.5098 8.31445 11.082 8.42188 11.6133 8.55469L11.0391 11.8242H10.2773L10.2188 9.82031C9.96875 9.61719 9.62109 9.44531 9.17578 9.30469C8.73047 9.16406 8.21875 9.09375 7.64062 9.09375C7.07031 9.09375 6.58008 9.16797 6.16992 9.31641C5.75977 9.46484 5.42383 9.66992 5.16211 9.93164C4.90039 10.1934 4.70703 10.5 4.58203 10.8516C4.45703 11.2031 4.39453 11.582 4.39453 11.9883C4.39453 12.3789 4.49023 12.7207 4.68164 13.0137C4.87305 13.3066 5.12305 13.5723 5.43164 13.8105C5.74023 14.0488 6.09375 14.2715 6.49219 14.4785C6.89062 14.6855 7.29492 14.8984 7.70508 15.1172C8.11523 15.3359 8.51953 15.5703 8.91797 15.8203C9.31641 16.0703 9.66992 16.3555 9.97852 16.6758C10.2871 16.9961 10.5371 17.3652 10.7285 17.7832C10.9199 18.2012 11.0156 18.6875 11.0156 19.2422C11.0156 20.0156 10.8887 20.7109 10.6348 21.3281C10.3809 21.9453 10 22.4688 9.49219 22.8984C8.98438 23.3281 8.34766 23.6582 7.58203 23.8887C6.81641 24.1191 5.91797 24.2344 4.88672 24.2344C3.90234 24.2344 3.01758 24.1348 2.23242 23.9355C1.44727 23.7363 0.796875 23.4727 0.28125 23.1445L0.890625 19.6523ZM15.4219 23.1797L17.2617 23.4727L17.168 24H13.3359L15.1289 13.8047L13.6172 13.5117L13.7109 12.9844H17.2148L15.4219 23.1797ZM17.9414 9.38672C17.9414 9.55859 17.9082 9.7207 17.8418 9.87305C17.7754 10.0254 17.6836 10.1602 17.5664 10.2773C17.4492 10.3945 17.3125 10.4863 17.1562 10.5527C17 10.6191 16.8359 10.6523 16.6641 10.6523C16.4922 10.6523 16.3301 10.6191 16.1777 10.5527C16.0254 10.4863 15.8906 10.3945 15.7734 10.2773C15.6562 10.1602 15.5645 10.0254 15.498 9.87305C15.4316 9.7207 15.3984 9.55859 15.3984 9.38672C15.3984 9.21484 15.4316 9.05078 15.498 8.89453C15.5645 8.73828 15.6562 8.60156 15.7734 8.48438C15.8906 8.36719 16.0254 8.27539 16.1777 8.20898C16.3301 8.14258 16.4922 8.10938 16.6641 8.10938C16.8359 8.10938 17 8.14258 17.1562 8.20898C17.3125 8.27539 17.4492 8.36719 17.5664 8.48438C17.6836 8.60156 17.7754 8.73828 17.8418 8.89453C17.9082 9.05078 17.9414 9.21484 17.9414 9.38672ZM22.0312 23.1797L23.8711 23.4727L23.7773 24H19.9453L22.7227 8.15625L21.2109 7.875L21.3047 7.34766H24.8086L22.0312 23.1797ZM33.3867 16.8047C33.6602 16.3594 33.8535 15.9453 33.9668 15.5625C34.0801 15.1797 34.1367 14.8398 34.1367 14.543C34.1367 14.2539 34.0547 14.0234 33.8906 13.8516C33.7266 13.6797 33.5508 13.5664 33.3633 13.5117L33.457 12.9844H35.6836C35.7539 13.0469 35.8223 13.1445 35.8887 13.2773C35.9551 13.4102 35.9883 13.5586 35.9883 13.7227C35.9883 13.9727 35.9258 14.3066 35.8008 14.7246C35.6758 15.1426 35.4141 15.668 35.0156 16.3008L30.0586 24.2344H29.2031L26.9883 13.8047L25.6641 13.5117L25.7695 12.9844H28.7695L30.4688 21.5625L33.3867 16.8047ZM39.4102 23.1797L41.25 23.4727L41.1562 24H37.3242L39.1172 13.8047L37.6055 13.5117L37.6992 12.9844H41.2031L39.4102 23.1797ZM41.9297 9.38672C41.9297 9.55859 41.8965 9.7207 41.8301 9.87305C41.7637 10.0254 41.6719 10.1602 41.5547 10.2773C41.4375 10.3945 41.3008 10.4863 41.1445 10.5527C40.9883 10.6191 40.8242 10.6523 40.6523 10.6523C40.4805 10.6523 40.3184 10.6191 40.166 10.5527C40.0137 10.4863 39.8789 10.3945 39.7617 10.2773C39.6445 10.1602 39.5527 10.0254 39.4863 9.87305C39.4199 9.7207 39.3867 9.55859 39.3867 9.38672C39.3867 9.21484 39.4199 9.05078 39.4863 8.89453C39.5527 8.73828 39.6445 8.60156 39.7617 8.48438C39.8789 8.36719 40.0137 8.27539 40.166 8.20898C40.3184 8.14258 40.4805 8.10938 40.6523 8.10938C40.8242 8.10938 40.9883 8.14258 41.1445 8.20898C41.3008 8.27539 41.4375 8.36719 41.5547 8.48438C41.6719 8.60156 41.7637 8.73828 41.8301 8.89453C41.8965 9.05078 41.9297 9.21484 41.9297 9.38672ZM51.5039 15.2344C51.5039 14.8828 51.4102 14.5977 51.2227 14.3789C51.0352 14.1602 50.7383 14.0508 50.332 14.0508C50.0039 14.0508 49.668 14.127 49.3242 14.2793C48.9805 14.4316 48.6484 14.6289 48.3281 14.8711C48.0078 15.1133 47.7109 15.3887 47.4375 15.6973C47.1641 16.0059 46.9336 16.3125 46.7461 16.6172L45.457 24H43.5117L45.3047 13.793L43.9219 13.5L44.0156 12.9727H47.2734L46.957 15.2227C47.2539 14.8398 47.5645 14.4922 47.8887 14.1797C48.2129 13.8672 48.5488 13.6016 48.8965 13.3828C49.2441 13.1641 49.5996 12.9941 49.9629 12.873C50.3262 12.752 50.6953 12.6914 51.0703 12.6914C51.4297 12.6914 51.7559 12.7383 52.0488 12.832C52.3418 12.9258 52.5918 13.0742 52.7988 13.2773C53.0059 13.4805 53.166 13.7383 53.2793 14.0508C53.3926 14.3633 53.4492 14.7344 53.4492 15.1641C53.4492 15.2578 53.4395 15.3848 53.4199 15.5449C53.4004 15.7051 53.375 15.8789 53.3438 16.0664C53.3125 16.2539 53.2812 16.4473 53.25 16.6465C53.2188 16.8457 53.1875 17.0312 53.1562 17.2031L52.125 23.1914L53.6602 23.4727L53.5664 24H50.0391L51.2344 17.1797C51.2656 17.0078 51.2969 16.8281 51.3281 16.6406C51.3594 16.4531 51.3887 16.2695 51.416 16.0898C51.4434 15.9102 51.4648 15.7461 51.4805 15.5977C51.4961 15.4492 51.5039 15.3281 51.5039 15.2344ZM58.3008 8.15625L56.918 7.875L57.0117 7.34766H60.3867L59.3555 13.125C59.3242 13.2891 59.2891 13.4805 59.25 13.6992C59.2109 13.918 59.1738 14.1289 59.1387 14.332C59.1035 14.5352 59.0684 14.7207 59.0332 14.8887C58.998 15.0566 58.9727 15.168 58.957 15.2227C59.2227 14.8711 59.5117 14.541 59.8242 14.2324C60.1367 13.9238 60.4688 13.6562 60.8203 13.4297C61.1719 13.2031 61.5352 13.0234 61.9102 12.8906C62.2852 12.7578 62.6719 12.6914 63.0703 12.6914C63.4297 12.6914 63.7559 12.7383 64.0488 12.832C64.3418 12.9258 64.5918 13.0742 64.7988 13.2773C65.0059 13.4805 65.166 13.7383 65.2793 14.0508C65.3926 14.3633 65.4492 14.7344 65.4492 15.1641C65.4492 15.2578 65.4395 15.3848 65.4199 15.5449C65.4004 15.7051 65.375 15.8789 65.3438 16.0664C65.3125 16.2539 65.2812 16.4473 65.25 16.6465C65.2188 16.8457 65.1875 17.0312 65.1562 17.2031L64.125 23.1914L65.6602 23.4727L65.5664 24H62.0391L63.2344 17.1797C63.2656 17.0078 63.2969 16.8281 63.3281 16.6406C63.3594 16.4531 63.3887 16.2695 63.416 16.0898C63.4434 15.9102 63.4648 15.7461 63.4805 15.5977C63.4961 15.4492 63.5039 15.3281 63.5039 15.2344C63.5039 14.8828 63.4102 14.5977 63.2227 14.3789C63.0352 14.1602 62.7383 14.0508 62.332 14.0508C62.0039 14.0508 61.668 14.125 61.3242 14.2734C60.9805 14.4219 60.6504 14.6152 60.334 14.8535C60.0176 15.0918 59.7227 15.3633 59.4492 15.668C59.1758 15.9727 58.9453 16.2773 58.7578 16.582L57.457 24H55.5234L58.3008 8.15625ZM69.4336 20.0156C69.4336 21.0703 69.6387 21.877 70.0488 22.4355C70.459 22.9941 71.0312 23.2734 71.7656 23.2734C72.3047 23.2734 72.8223 23.1113 73.3184 22.7871C73.8145 22.4629 74.252 22.0176 74.6309 21.4512C75.0098 20.8848 75.3145 20.2129 75.5449 19.4355C75.7754 18.6582 75.8906 17.8125 75.8906 16.8984C75.8906 15.8203 75.6855 15.002 75.2754 14.4434C74.8652 13.8848 74.2773 13.6055 73.5117 13.6055C72.9805 13.6055 72.4688 13.7656 71.9766 14.0859C71.4844 14.4062 71.0508 14.8496 70.6758 15.416C70.3008 15.9824 70 16.6582 69.7734 17.4434C69.5469 18.2285 69.4336 19.0859 69.4336 20.0156ZM71.6602 24.2344C71.0273 24.2344 70.4473 24.1289 69.9199 23.918C69.3926 23.707 68.9395 23.4023 68.5605 23.0039C68.1816 22.6055 67.8887 22.1211 67.6816 21.5508C67.4746 20.9805 67.3711 20.3359 67.3711 19.6172C67.3711 18.7031 67.5176 17.8281 67.8105 16.9922C68.1035 16.1562 68.5215 15.4199 69.0645 14.7832C69.6074 14.1465 70.2656 13.6387 71.0391 13.2598C71.8125 12.8809 72.6836 12.6914 73.6523 12.6914C74.2852 12.6914 74.8652 12.7969 75.3926 13.0078C75.9199 13.2188 76.373 13.5234 76.752 13.9219C77.1309 14.3203 77.4238 14.8047 77.6309 15.375C77.8379 15.9453 77.9414 16.5898 77.9414 17.3086C77.9414 18.2227 77.7949 19.0977 77.502 19.9336C77.209 20.7695 76.791 21.5059 76.248 22.1426C75.7051 22.7793 75.0469 23.2871 74.2734 23.666C73.5 24.0449 72.6289 24.2344 71.6602 24.2344ZM85.5469 19.6523H86.3086L86.3203 21.8906C86.4453 22.0781 86.6191 22.2559 86.8418 22.4238C87.0645 22.5918 87.3203 22.7402 87.6094 22.8691C87.8984 22.998 88.2129 23.0996 88.5527 23.1738C88.8926 23.248 89.2461 23.2852 89.6133 23.2852C90.2773 23.2852 90.8574 23.2051 91.3535 23.0449C91.8496 22.8848 92.2656 22.6543 92.6016 22.3535C92.9375 22.0527 93.1895 21.6914 93.3574 21.2695C93.5254 20.8477 93.6094 20.3711 93.6094 19.8398C93.6094 19.418 93.5156 19.0508 93.3281 18.7383C93.1406 18.4258 92.8906 18.1445 92.5781 17.8945C92.2656 17.6445 91.9121 17.4141 91.5176 17.2031C91.123 16.9922 90.7188 16.7793 90.3047 16.5645C89.8906 16.3496 89.4863 16.1191 89.0918 15.873C88.6973 15.627 88.3438 15.3418 88.0312 15.0176C87.7188 14.6934 87.4688 14.3203 87.2812 13.8984C87.0938 13.4766 87 12.9805 87 12.4102C87 11.6914 87.127 11.0625 87.3809 10.5234C87.6348 9.98438 87.998 9.53711 88.4707 9.18164C88.9434 8.82617 89.5176 8.55859 90.1934 8.37891C90.8691 8.19922 91.6289 8.10938 92.4727 8.10938C93.2461 8.10938 93.9395 8.15039 94.5527 8.23242C95.166 8.31445 95.7383 8.42188 96.2695 8.55469L95.6953 11.8242H94.9336L94.875 9.82031C94.625 9.61719 94.2773 9.44531 93.832 9.30469C93.3867 9.16406 92.875 9.09375 92.2969 9.09375C91.7266 9.09375 91.2363 9.16797 90.8262 9.31641C90.416 9.46484 90.0801 9.66992 89.8184 9.93164C89.5566 10.1934 89.3633 10.5 89.2383 10.8516C89.1133 11.2031 89.0508 11.582 89.0508 11.9883C89.0508 12.3789 89.1465 12.7207 89.3379 13.0137C89.5293 13.3066 89.7793 13.5723 90.0879 13.8105C90.3965 14.0488 90.75 14.2715 91.1484 14.4785C91.5469 14.6855 91.9512 14.8984 92.3613 15.1172C92.7715 15.3359 93.1758 15.5703 93.5742 15.8203C93.9727 16.0703 94.3262 16.3555 94.6348 16.6758C94.9434 16.9961 95.1934 17.3652 95.3848 17.7832C95.5762 18.2012 95.6719 18.6875 95.6719 19.2422C95.6719 20.0156 95.5449 20.7109 95.291 21.3281C95.0371 21.9453 94.6562 22.4688 94.1484 22.8984C93.6406 23.3281 93.0039 23.6582 92.2383 23.8887C91.4727 24.1191 90.5742 24.2344 89.543 24.2344C88.5586 24.2344 87.6738 24.1348 86.8887 23.9355C86.1035 23.7363 85.4531 23.4727 84.9375 23.1445L85.5469 19.6523ZM105.902 23.1797L107.227 23.4727L107.133 24H103.793L104.133 22.1719C103.477 22.8594 102.848 23.377 102.246 23.7246C101.645 24.0723 101.066 24.2461 100.512 24.2461C100.066 24.2461 99.6523 24.1621 99.2695 23.9941C98.8867 23.8262 98.5547 23.5781 98.2734 23.25C97.9922 22.9219 97.7715 22.5137 97.6113 22.0254C97.4512 21.5371 97.3711 20.9727 97.3711 20.332C97.3711 19.6602 97.4453 19.0059 97.5938 18.3691C97.7422 17.7324 97.9551 17.1309 98.2324 16.5645C98.5098 15.998 98.8438 15.4785 99.2344 15.0059C99.625 14.5332 100.062 14.127 100.547 13.7871C101.031 13.4473 101.559 13.1816 102.129 12.9902C102.699 12.7988 103.297 12.7031 103.922 12.7031C104.438 12.7031 104.912 12.7461 105.346 12.832C105.779 12.918 106.195 13.0391 106.594 13.1953C106.617 13.1797 106.645 13.1602 106.676 13.1367C106.699 13.1211 106.727 13.1016 106.758 13.0781C106.789 13.0547 106.824 13.0273 106.863 12.9961C106.941 12.9414 107.027 12.875 107.121 12.7969H107.754L105.902 23.1797ZM105.562 14.1914C105.414 14.0898 105.273 14.0039 105.141 13.9336C105.008 13.8633 104.869 13.8047 104.725 13.7578C104.58 13.7109 104.428 13.6777 104.268 13.6582C104.107 13.6387 103.926 13.6289 103.723 13.6289C103.066 13.6289 102.475 13.8223 101.947 14.209C101.42 14.5957 100.973 15.0957 100.605 15.709C100.238 16.3223 99.957 17.0078 99.7617 17.7656C99.5664 18.5234 99.4688 19.2773 99.4688 20.0273C99.4688 20.5195 99.5234 20.9395 99.6328 21.2871C99.7422 21.6348 99.8848 21.9199 100.061 22.1426C100.236 22.3652 100.439 22.5273 100.67 22.6289C100.9 22.7305 101.141 22.7812 101.391 22.7812C101.648 22.7812 101.906 22.7363 102.164 22.6465C102.422 22.5566 102.674 22.4355 102.92 22.2832C103.166 22.1309 103.404 21.957 103.635 21.7617C103.865 21.5664 104.082 21.3633 104.285 21.1523L105.562 14.1914ZM117.504 15.2344C117.504 14.8828 117.41 14.5977 117.223 14.3789C117.035 14.1602 116.738 14.0508 116.332 14.0508C116.004 14.0508 115.668 14.127 115.324 14.2793C114.98 14.4316 114.648 14.6289 114.328 14.8711C114.008 15.1133 113.711 15.3887 113.438 15.6973C113.164 16.0059 112.934 16.3125 112.746 16.6172L111.457 24H109.512L111.305 13.793L109.922 13.5L110.016 12.9727H113.273L112.957 15.2227C113.254 14.8398 113.564 14.4922 113.889 14.1797C114.213 13.8672 114.549 13.6016 114.896 13.3828C115.244 13.1641 115.6 12.9941 115.963 12.873C116.326 12.752 116.695 12.6914 117.07 12.6914C117.43 12.6914 117.756 12.7383 118.049 12.832C118.342 12.9258 118.592 13.0742 118.799 13.2773C119.006 13.4805 119.166 13.7383 119.279 14.0508C119.393 14.3633 119.449 14.7344 119.449 15.1641C119.449 15.2578 119.439 15.3848 119.42 15.5449C119.4 15.7051 119.375 15.8789 119.344 16.0664C119.312 16.2539 119.281 16.4473 119.25 16.6465C119.219 16.8457 119.188 17.0312 119.156 17.2031L118.125 23.1914L119.66 23.4727L119.566 24H116.039L117.234 17.1797C117.266 17.0078 117.297 16.8281 117.328 16.6406C117.359 16.4531 117.389 16.2695 117.416 16.0898C117.443 15.9102 117.465 15.7461 117.48 15.5977C117.496 15.4492 117.504 15.3281 117.504 15.2344ZM123.75 21.9609C123.75 22.3125 123.838 22.5762 124.014 22.752C124.189 22.9277 124.414 23.0156 124.688 23.0156C125.023 23.0156 125.332 22.9844 125.613 22.9219C125.895 22.8594 126.18 22.7734 126.469 22.6641L126.715 23.2148C126.316 23.4961 125.881 23.7363 125.408 23.9355C124.936 24.1348 124.398 24.2344 123.797 24.2344C123.469 24.2344 123.18 24.1816 122.93 24.0762C122.68 23.9707 122.471 23.8242 122.303 23.6367C122.135 23.4492 122.01 23.2246 121.928 22.9629C121.846 22.7012 121.805 22.4141 121.805 22.1016C121.805 21.875 121.824 21.6172 121.863 21.3281C121.902 21.0391 121.945 20.7617 121.992 20.4961L123.152 13.9688H121.711L121.805 13.4414L123.363 12.9844L124.969 10.4883H125.719L125.285 12.9844H127.805L127.617 13.9688H125.098L123.961 20.4023C123.898 20.7227 123.848 21.0195 123.809 21.293C123.77 21.5664 123.75 21.7891 123.75 21.9609ZM130.102 20.0156C130.102 21.0703 130.307 21.877 130.717 22.4355C131.127 22.9941 131.699 23.2734 132.434 23.2734C132.973 23.2734 133.49 23.1113 133.986 22.7871C134.482 22.4629 134.92 22.0176 135.299 21.4512C135.678 20.8848 135.982 20.2129 136.213 19.4355C136.443 18.6582 136.559 17.8125 136.559 16.8984C136.559 15.8203 136.354 15.002 135.943 14.4434C135.533 13.8848 134.945 13.6055 134.18 13.6055C133.648 13.6055 133.137 13.7656 132.645 14.0859C132.152 14.4062 131.719 14.8496 131.344 15.416C130.969 15.9824 130.668 16.6582 130.441 17.4434C130.215 18.2285 130.102 19.0859 130.102 20.0156ZM132.328 24.2344C131.695 24.2344 131.115 24.1289 130.588 23.918C130.061 23.707 129.607 23.4023 129.229 23.0039C128.85 22.6055 128.557 22.1211 128.35 21.5508C128.143 20.9805 128.039 20.3359 128.039 19.6172C128.039 18.7031 128.186 17.8281 128.479 16.9922C128.771 16.1562 129.189 15.4199 129.732 14.7832C130.275 14.1465 130.934 13.6387 131.707 13.2598C132.48 12.8809 133.352 12.6914 134.32 12.6914C134.953 12.6914 135.533 12.7969 136.061 13.0078C136.588 13.2188 137.041 13.5234 137.42 13.9219C137.799 14.3203 138.092 14.8047 138.299 15.375C138.506 15.9453 138.609 16.5898 138.609 17.3086C138.609 18.2227 138.463 19.0977 138.17 19.9336C137.877 20.7695 137.459 21.5059 136.916 22.1426C136.373 22.7793 135.715 23.2871 134.941 23.666C134.168 24.0449 133.297 24.2344 132.328 24.2344ZM147.434 20.7656C147.434 21.9453 147.059 22.8184 146.309 23.3848C145.559 23.9512 144.422 24.2344 142.898 24.2344C142.195 24.2344 141.566 24.1543 141.012 23.9941C140.457 23.834 139.992 23.6719 139.617 23.5078L140.098 20.8594H140.625L140.824 22.4648C141.027 22.6836 141.314 22.8789 141.686 23.0508C142.057 23.2227 142.477 23.3086 142.945 23.3086C143.297 23.3086 143.629 23.2734 143.941 23.2031C144.254 23.1328 144.527 23.0176 144.762 22.8574C144.996 22.6973 145.18 22.4824 145.312 22.2129C145.445 21.9434 145.512 21.6094 145.512 21.2109C145.512 20.8047 145.396 20.4648 145.166 20.1914C144.936 19.918 144.648 19.6738 144.305 19.459C143.961 19.2441 143.588 19.0391 143.186 18.8438C142.783 18.6484 142.41 18.4238 142.066 18.1699C141.723 17.916 141.436 17.6133 141.205 17.2617C140.975 16.9102 140.859 16.4688 140.859 15.9375C140.859 15.3516 140.967 14.8516 141.182 14.4375C141.396 14.0234 141.686 13.6875 142.049 13.4297C142.412 13.1719 142.83 12.9844 143.303 12.8672C143.775 12.75 144.273 12.6914 144.797 12.6914C145.359 12.6914 145.902 12.7324 146.426 12.8145C146.949 12.8965 147.453 12.9922 147.938 13.1016L147.504 15.5508H146.953L146.789 14.2852C146.57 14.0898 146.291 13.9316 145.951 13.8105C145.611 13.6895 145.242 13.6289 144.844 13.6289C144.203 13.6289 143.691 13.7754 143.309 14.0684C142.926 14.3613 142.734 14.8164 142.734 15.4336C142.734 15.8164 142.85 16.1367 143.08 16.3945C143.311 16.6523 143.602 16.8887 143.953 17.1035C144.305 17.3184 144.682 17.5293 145.084 17.7363C145.486 17.9434 145.863 18.1797 146.215 18.4453C146.566 18.7109 146.857 19.0293 147.088 19.4004C147.318 19.7715 147.434 20.2266 147.434 20.7656Z" fill="#F5F5F4"/>
</svg>
