<svg width="37" height="33" viewBox="0 0 37 33" fill="none" xmlns="http://www.w3.org/2000/svg">
<rect x="0.5" y="0.5" width="35.9999" height="31.9999" rx="11.5" stroke="#43483F" stroke-opacity="0.2"/>
<path d="M16.25 20.5384L22.5384 16.5L16.25 12.4615V20.5384ZM10.8077 23.9999C10.3026 23.9999 9.87499 23.8249 9.525 23.4749C9.175 23.1249 9 22.6974 9 22.1922V10.8077C9 10.3026 9.175 9.87499 9.525 9.525C9.87499 9.175 10.3026 9 10.8077 9H26.1922C26.6974 9 27.1249 9.175 27.4749 9.525C27.8249 9.87499 27.9999 10.3026 27.9999 10.8077V22.1922C27.9999 22.6974 27.8249 23.1249 27.4749 23.4749C27.1249 23.8249 26.6974 23.9999 26.1922 23.9999H10.8077ZM10.8077 22.5H26.1922C26.2692 22.5 26.3397 22.4679 26.4038 22.4038C26.4679 22.3397 26.5 22.2692 26.5 22.1922V10.8077C26.5 10.7307 26.4679 10.6602 26.4038 10.5961C26.3397 10.532 26.2692 10.5 26.1922 10.5H10.8077C10.7307 10.5 10.6602 10.532 10.5961 10.5961C10.532 10.6602 10.5 10.7307 10.5 10.8077V22.1922C10.5 22.2692 10.532 22.3397 10.5961 22.4038C10.6602 22.4679 10.7307 22.5 10.8077 22.5ZM10.5 22.5C10.5 22.5 10.5 22.4679 10.5 22.4038C10.5 22.3397 10.5 22.2692 10.5 22.1922V10.8077C10.5 10.7307 10.5 10.6602 10.5 10.5961C10.5 10.532 10.5 10.5 10.5 10.5C10.5 10.5 10.5 10.532 10.5 10.5961C10.5 10.6602 10.5 10.7307 10.5 10.8077V22.1922C10.5 22.2692 10.5 22.3397 10.5 22.4038C10.5 22.4679 10.5 22.5 10.5 22.5Z" fill="#E3E3D9"/>
</svg>
